<svg width="104" height="104" viewBox="0 0 104 104" fill="none" xmlns="http://www.w3.org/2000/svg">
<path d="M64.1672 40.3069C69.444 40.307 74.4016 42.361 78.133 46.093H78.134C81.8653 49.8236 83.9191 54.7818 83.9191 60.0588C83.9191 65.1718 81.9913 69.9848 78.4777 73.6731L78.133 74.0266L53.801 98.3596H53.8C53.3034 98.8568 52.6529 99.1056 52.0002 99.1057C51.3476 99.1057 50.697 98.8572 50.1994 98.3596L25.8664 74.0266C18.166 66.3262 18.1659 53.7941 25.8664 46.092C29.5979 42.3607 34.5571 40.3069 39.8342 40.3069C44.1738 40.307 48.296 41.6961 51.6984 44.2629L52.0002 44.4905L52.301 44.2629C55.7035 41.6959 59.8273 40.3069 64.1672 40.3069Z" fill="#DEB959" stroke="#353535"/>
<path d="M37.8579 4.96875C41.2229 4.96875 44.4959 6.71398 46.8188 9.81152C48.9882 12.7053 50.1948 16.5236 50.1948 20.5693C50.1948 24.6154 48.9884 28.4353 46.8188 31.3291C44.4959 34.4259 41.2237 36.1709 37.8579 36.1709C34.4915 36.1708 31.22 34.4256 28.8979 31.3291C26.7276 28.4352 25.52 24.6153 25.52 20.5693C25.5201 16.5243 26.7277 12.7053 28.8979 9.81152C31.2209 6.71401 34.4914 4.96883 37.8579 4.96875Z" fill="#DEB959" stroke="#353535"/>
<path d="M66.142 4.96875C69.5077 4.96889 72.7791 6.71408 75.102 9.81152C77.2722 12.7053 78.4789 16.5235 78.4789 20.5693C78.4789 24.6154 77.2723 28.4353 75.102 31.3291C72.7791 34.4256 69.5084 36.1708 66.142 36.1709C62.7763 36.1709 59.5041 34.4258 57.1811 31.3291C55.0115 28.4353 53.8051 24.6154 53.8051 20.5693C53.8052 16.5244 55.0117 12.7053 57.1811 9.81152C59.5041 6.71396 62.7762 4.96875 66.142 4.96875Z" fill="#2C5680" stroke="#353535"/>
<path d="M92.7947 19.1106C95.7322 19.1106 98.583 20.6238 100.601 23.3157C102.463 25.7987 103.5 29.0715 103.5 32.5354C103.5 36.0002 102.463 39.2738 100.601 41.7561C98.583 44.4478 95.7322 45.9612 92.7947 45.9612C89.8572 45.9612 87.0064 44.4478 84.988 41.7561V41.7551C83.1255 39.2729 82.0886 35.9994 82.0886 32.5354C82.0887 29.0715 83.1254 25.7977 84.988 23.3147C87.0064 20.6238 89.8572 19.1106 92.7947 19.1106Z" fill="#2C5680" stroke="#353535"/>
<path d="M11.2051 19.1106C14.1434 19.1106 16.9944 20.6237 19.0127 23.3147C20.8747 25.7986 21.912 29.0716 21.9121 32.5354C21.9121 35.7836 21.0007 38.8639 19.3525 41.2815L19.0127 41.7561C16.9944 44.4478 14.1434 45.9612 11.2051 45.9612C8.26845 45.9611 5.41774 44.4478 3.39941 41.7561V41.7551C1.53688 39.2729 0.5 35.9994 0.5 32.5354C0.500073 29.0715 1.5368 25.7987 3.39941 23.3157C5.41775 20.6239 8.26839 19.1106 11.2051 19.1106Z" fill="#DEB959" stroke="#353535"/>
<path d="M64.1664 40.3069C69.4434 40.3069 74.4017 42.3609 78.1332 46.093C81.8646 49.8236 83.9192 54.7825 83.9193 60.0588C83.9193 65.3368 81.8647 70.2951 78.1332 74.0266L53.8002 98.3596C53.4846 98.6752 53.1066 98.8869 52.7054 99.0012V43.9709C56.0284 41.5927 59.9961 40.307 64.1664 40.3069Z" fill="#2C5680" stroke="#353535"/>
</svg>
